<svg width="512" height="512" viewBox="0 0 512 512" fill="none" xmlns="http://www.w3.org/2000/svg">
<circle cx="192.5" cy="-50.5" r="114.5" fill="#90FF69"/>
<circle cx="-29" cy="49" r="117" fill="#90FF69"/>
<path d="M65 116L75.6325 99.2119C92.5258 72.5382 122.544 57.1105 154.067 58.9015L191 61" stroke="#90FF69"/>
<path d="M100.188 53.3091C96.7219 54.6957 93.3149 56.2274 93.0952 60.4024C92.9499 63.1633 93.6108 64.5343 96.7403 63.7519C103.263 62.1212 108.152 47.1602 97.627 52.1269C94.8263 53.4486 93.0952 56.2449 93.0952 59.3187C93.0952 62.06 97.8887 61.3532 99.6466 61.2398C110.05 60.5686 95.962 56.0097 98.8092 64.1953C100.622 69.4084 118.363 54.949 106.888 55.0824C100.324 55.1588 96.7241 57.8265 91.4204 61.1412C85.7519 64.6841 101.765 60.2112 104.031 58.6291C104.507 58.2965 110.905 53.8312 109.745 52.4225C106.739 48.7726 93.8756 53.4684 90.8786 55.181C89.0936 56.2009 82.6889 62.1938 88.5634 61.7816C99.052 61.0456 110.321 52.3934 115.262 43.2604C125.129 25.0204 95.4179 34.4132 88.859 38.5316C86.4746 40.0287 80.3244 44.2342 80.6821 47.9892C81.1469 52.87 102.094 39.9084 103.242 39.0734C108.195 35.4718 115.246 29.8006 114.276 22.7688C113.061 13.957 94.3244 20.4907 90.1397 21.9807C87.7157 22.8438 67.4028 31.3537 70.3378 36.8568C71.1864 38.448 75.7463 38.7076 76.8399 38.7286C90.2005 38.9855 103.842 33.4669 115.557 27.5962C119.519 25.6107 147.384 10.4987 139.201 1.68619C130.922 -7.22986 108.552 -1.71589 99.4003 1.93249C92.2242 4.79325 85.6817 9.07164 79.4013 13.5082C78.3383 14.2592 68.3241 20.3 69.2541 22.9659C71.8853 30.5088 103.938 9.81482 106.641 7.89277C107.492 7.28828 121.115 -0.920812 117.133 -4.27409C115.451 -5.69118 112.457 -5.76479 110.434 -5.89962C102.455 -6.43154 94.1254 -6.33602 86.199 -5.30852C84.3324 -5.06655 68.5825 -2.84069 70.19 1.98174C72.8539 9.97359 96.1437 3.46249 100.878 1.58768C105.934 -0.414441 115.329 -4.21259 114.178 -11.121C112.26 -22.6307 91.3097 -18.9894 83.8839 -18.1157C74.7298 -17.0388 59.2848 -14.14 53.6391 -5.35778C48.8071 2.1587 68.2614 1.47594 70.2393 1.29212C81.5002 0.245571 94.7111 -2.40916 104.523 -8.36255C110.596 -12.0471 101.304 -14.9282 97.9225 -15.6528C89.5421 -17.4486 75.6733 -18.5511 67.8748 -14.0765C63.3214 -11.4639 64.2224 -7.86472 69.6974 -7.18034C80.3535 -5.84833 92.9745 -8.05815 102.454 -12.9928C110.766 -17.3196 103.697 -19.0761 97.627 -19.1994C88.4861 -19.3852 79.294 -18.2848 70.3378 -16.5395C65.5084 -15.5984 55.1747 -14.452 52.1121 -9.34772C50.3397 -6.39377 52.3761 -6.04539 55.0676 -6.09665C66.255 -6.30975 77.1927 -9.29847 87.5783 -13.2884C87.6576 -13.3189 93.5884 -15.1302 93.44 -16.3917C93.1223 -19.0922 85.714 -20.2627 84.0316 -20.5294C79.5236 -21.2441 74.8851 -21.1471 70.3378 -21.1698C67.0321 -21.1862 58.1148 -22.7766 55.1661 -20.7757C52.7208 -19.1164 60.7289 -18.6817 63.6386 -18.165C70.5371 -16.94 77.4786 -16.5523 84.475 -16.835C85.2786 -16.8675 99.2003 -17.8086 92.3071 -20.2831C81.9694 -23.9941 68.3815 -22.1091 57.8261 -20.4801C47.4632 -18.8809 58.6023 -17.983 62.4564 -17.8202C69.1608 -17.5369 75.8956 -17.5799 82.6031 -17.6724C86.4604 -17.7256 94.3045 -16.7359 98.0211 -18.9039C99.9342 -20.0199 93.8219 -20.4629 91.6175 -20.6772C77.5565 -22.0442 63.0726 -21.2894 48.9596 -21.1698C43.2093 -21.121 48.0852 -18.7746 51.0777 -18.6083C61.9557 -18.004 73.6298 -17.8403 84.4257 -19.3965C92.7611 -20.598 80.7607 -20.9193 79.2043 -20.9727C72.9018 -21.1891 66.5941 -21.1698 60.289 -21.1698C60.1896 -21.1698 55.718 -21.2371 54.7228 -21.0712C54.3328 -21.0062 55.2214 -20.3592 55.6095 -20.2831C67.9453 -17.8643 82.6782 -18.6861 94.4744 -23.0416C94.7921 -23.1589 99.7629 -24.8069 95.9522 -24.5193C87.7495 -23.9003 79.4927 -22.2456 71.52 -20.2831C70.4153 -20.0112 55.2127 -16.9904 56.1021 -14.4706C58.0514 -8.94748 79.4093 -10.5783 83.8346 -10.5299C93.6069 -10.4231 89.3855 -10.5299 82.5539 -10.5299C75.4576 -10.5299 68.0496 -11.1708 61.1757 -9.64327" stroke="#90FF69" stroke-width="3" stroke-linecap="round"/>
<path d="M105.93 -1.62693C99.0187 -2.38643 92.2452 -3.7658 85.372 -4.57973C83.2185 -4.83475 80.9397 -4.88615 78.77 -4.88615C76.442 -4.88615 74.0325 -3.86159 71.8615 -3.11726C68.7023 -2.0341 66.2901 0.229802 63.5324 2.02228C60.9434 3.70517 58.8991 5.18091 57.599 8.09501C56.7503 9.99731 58.497 10.6365 60.0782 11.4099C66.1403 14.3751 72.2995 15.9357 78.965 16.8977C83.9071 17.611 89.1402 17.1763 94.1329 17.1763C97.8616 17.1763 101.582 16.756 105.317 16.6748C107.855 16.6197 110.157 15.2865 112.644 14.9756C114.242 14.7757 115.84 14.6457 117.435 14.4463C120.576 14.0537 123.688 13.271 126.85 12.8585C129.462 12.5178 132.128 12.6635 134.762 12.6635C136.658 12.6635 138.612 12.6017 140.403 13.2903C141.528 13.723 142.858 13.5682 143.982 13.9727C145.014 14.3442 146.275 14.7337 147.395 14.9059C148.362 15.0548 149.194 15.9227 150.18 15.9227C150.95 15.9227 152.567 16.3986 153.314 16.7306C154.923 17.4457 156.939 17.0018 158.328 17.9284" stroke="#90FF69" stroke-width="82" stroke-linecap="round"/>
<path d="M109.691 43.25C107.489 43.25 107.211 44.332 105.54 45.395C104.805 45.8627 104.346 46.5429 103.618 47.0107C103.136 47.3202 102.468 48.0634 102.016 48.2642C100.936 48.7442 100.193 49.8376 99.1053 50.2142C97.9844 50.6021 96.7016 51.5593 95.7068 52.2755C95.0438 52.7529 91.2738 56.1316 91.9322 56.8997C92.2841 57.3103 94.1953 57.2897 94.69 57.2897C96.0068 57.2897 97.3441 57.3628 98.6596 57.2897C99.4235 57.2473 100.218 56.6976 100.916 56.4262C101.773 56.0929 102.731 55.9189 103.618 55.5905C104.783 55.1591 105.966 54.5119 107.058 53.9052C108.118 53.3166 109.953 52.9886 110.805 52.1363C112.133 50.8083 114.691 51.2387 116.265 50.2699C117.081 49.7674 118.393 49.5177 119.343 49.5177C119.976 49.5177 120.446 49.0163 121.168 49.0163C121.809 49.0163 122.364 48.7656 122.978 48.7656C124.279 48.7656 125.695 47.5121 126.99 47.5121C127.902 47.5121 129.9 47.4815 130.695 47.0107C131.774 46.371 133.626 46.5092 134.887 46.5092C135.854 46.5092 134.323 46.5092 134.065 46.5092C133.295 46.5092 132.524 46.5092 131.753 46.5092C129.263 46.5092 126.901 46.6915 124.427 47.0664C123.173 47.2563 121.948 47.6643 120.694 47.8881C119.105 48.1719 117.303 48.3416 115.847 49.0163C111.322 51.1131 106.914 53.427 102.448 55.6601C101.202 56.2832 100.157 57.1142 98.9103 57.7911C97.5391 58.5355 96.5128 59.6365 95.1497 60.354C94.1526 60.8787 93.198 61.8415 92.2526 62.4432C91.2874 63.0574 90.6022 64.4383 89.6341 64.9224C88.4017 65.5386 87.6052 66.8975 86.3191 67.3738C84.9327 67.8873 83.4636 68.8448 82.3078 69.7695C81.8038 70.1726 80.4026 70.5788 79.7171 70.828C78.9238 71.1165 77.4987 71.8309 76.7225 71.8309C75.6237 71.8309 74.3052 72.9005 73.3937 73.4744C72.2279 74.2084 71.2575 74.8843 70.0787 75.5915" stroke="#90FF69" stroke-width="21" stroke-linecap="round"/>
<path d="M81.587 75.8196C80.8977 75.8196 80.7369 75.7977 80.2106 76.1382C79.9012 76.3384 79.8559 76.5421 79.465 76.6289C79.0743 76.7157 78.8164 77.0581 78.3754 77.0813C77.9721 77.1026 77.5306 77.4558 77.1774 77.6485C76.8556 77.824 76.0095 78.7602 75.9666 79.146C75.9477 79.3166 75.8269 79.4097 75.6863 79.4901C75.5761 79.553 75.6272 79.7799 75.5652 79.8915C75.3848 80.2163 75.4009 80.4991 75.2784 80.8665" stroke="#90FF69" stroke-width="21" stroke-linecap="round"/>
<path d="M76.8843 79.4901C76.5423 79.9552 76.3796 80.4192 76.0813 80.8665" stroke="#90FF69" stroke-width="21" stroke-linecap="round"/>
<path d="M80.8988 75.5902C79.5329 75.3419 78.0786 76.1279 77.1137 77.024C76.7717 77.3415 76.6407 77.9638 76.2534 78.222C75.9202 78.4441 75.9139 78.9565 75.6671 79.2033C75.15 79.7205 74.7749 80.4309 74.2461 80.9302C73.849 81.3053 73.2247 81.877 72.9844 82.3576" stroke="#90FF69" stroke-width="21" stroke-linecap="round"/>
<path d="M79.8665 74.4432C79.1474 75.4112 78.4694 76.4992 77.8911 77.5401C77.3932 78.4363 76.687 79.1969 76.0813 80.0381C75.6135 80.6879 75.1308 81.3625 74.7049 82.039C74.4076 82.5112 74.2736 83.0084 73.9657 83.4792C73.7138 83.8645 73.4857 84.2892 73.2138 84.6517" stroke="#90FF69" stroke-width="21" stroke-linecap="round"/>
<path d="M81.2429 75.5902C80.6837 76.1494 80.4569 76.572 80.2106 77.3108" stroke="#90FF69" stroke-width="21" stroke-linecap="round"/>
<path d="M145.82 46.8C144.41 47.0303 142.868 46.6559 141.525 47.1441C140.09 47.666 138.626 47.8323 137.052 47.8323C136.384 47.8323 135.536 47.9475 134.872 48.0681C134.395 48.1549 133.767 48.1952 133.311 48.3549C132.886 48.5037 132.507 48.5205 132.062 48.5205C131.702 48.5205 131.408 48.707 131.049 48.7754C130.673 48.847 130.311 49.0383 129.94 49.0877C129.776 49.1096 129.608 49.0823 129.443 49.0941C129.243 49.1084 129.133 49.3013 128.933 49.3235C128.111 49.4148 127.4 49.684 126.601 49.897C125.985 50.0614 125.243 50.15 124.664 50.4131C124.194 50.6269 123.661 50.7075 123.16 50.8401C122.607 50.9866 122.077 51.2734 121.503 51.2734C120.364 51.2734 118.989 51.7508 117.89 52.0891C116.522 52.51 115.151 53.0602 113.793 53.4782C112.537 53.8647 111.102 54.3059 110.02 55.0012C109.764 55.166 109.402 55.1288 109.186 55.3453C109.001 55.5302 108.651 55.7856 108.402 55.887C107.688 56.1776 106.707 56.7463 106.133 57.2379C105.586 57.7069 104.485 57.8835 103.826 58.2129C103.178 58.5372 102.479 58.7905 101.934 59.2516C101.444 59.6663 100.738 59.8579 100.194 60.2201C99.6077 60.6112 98.7525 60.7753 98.2443 61.227C98.0208 61.4256 97.6364 61.5989 97.3522 61.6858C96.9448 61.8103 96.5892 62.1324 96.2115 62.3358C95.8277 62.5424 95.6928 62.6952 95.3768 63.0112C95.1333 63.2547 94.7972 63.1339 94.6057 63.4318C94.3229 63.8718 93.5826 64.0003 93.1719 64.3494C92.8871 64.5915 92.4608 64.6813 92.1333 64.8656C91.7998 65.0531 91.3789 65.3342 91.0308 65.471C89.6138 66.0276 88.2729 66.853 86.9717 67.6121C86.2975 68.0053 85.6038 68.2544 84.9771 68.7336C84.3967 69.1774 83.845 69.6438 83.1929 69.9698" stroke="#90FF69" stroke-width="21" stroke-linecap="round"/>
<path d="M147.999 54.5998C148.288 54.825 148.432 55.0586 148.802 55.0586" stroke="#90FF69" stroke-width="7" stroke-linecap="round"/>
<path d="M149.605 54.7145C148.559 54.54 147.333 55.0186 146.253 55.0586C145.655 55.0807 145.098 55.1733 144.495 55.1733C143.959 55.1733 143.491 55.4027 142.953 55.4027C142.073 55.4027 141.194 55.4027 140.314 55.4027C139.242 55.4027 138.259 55.9762 137.217 55.9762C136.011 55.9762 134.843 56.3203 133.662 56.3203C133.238 56.3203 132.85 56.534 132.425 56.5497C131.856 56.5708 131.428 56.5987 130.909 56.8428C130.568 57.0033 129.71 57.0085 129.329 57.0085C128.74 57.0085 128.226 57.2636 127.672 57.4418C126.68 57.7605 125.702 58.0898 124.715 58.4423C124.499 58.5196 124.279 58.4996 124.052 58.4996C123.772 58.4996 123.565 58.685 123.288 58.7354C122.791 58.8256 122.213 59.1878 121.733 59.1878C121.254 59.1878 120.688 59.5627 120.184 59.6403C119.729 59.7103 118.979 59.8036 118.585 60.0545C118.188 60.3071 117.69 60.2851 117.259 60.5005C116.812 60.7244 115.969 60.797 115.596 61.0868C115.34 61.2858 114.814 61.5052 114.494 61.5966C113.986 61.7415 113.453 62.2023 112.958 62.2784C112.425 62.3604 111.959 62.728 111.467 62.9093C111.117 63.0381 110.276 63.2066 110.039 63.4828C109.893 63.6538 108.97 63.8286 108.708 63.948C108.238 64.1615 107.668 64.2741 107.223 64.5215C106.211 65.0837 105.11 65.5038 104.12 66.07C103.732 66.2917 103.296 66.6714 102.877 66.7645C102.461 66.857 102.07 67.4245 101.66 67.5611" stroke="#90FF69" stroke-width="7" stroke-linecap="round"/>
<path d="M151.555 54.9439C151.348 55.1055 151.096 55.2344 151.096 55.5174" stroke="#90FF69" stroke-width="7" stroke-linecap="round"/>
<path d="M115.195 61.0231C115.588 61.2724 115.969 61.5534 116.227 61.9407" stroke="#90FF69" stroke-width="7" stroke-linecap="round"/>
<path d="M108.771 63.2024C109.66 63.2447 110.102 64.2347 110.893 64.2347C111.353 64.2347 111.868 64.0677 111.868 63.5465" stroke="#90FF69" stroke-width="7" stroke-linecap="round"/>
<path d="M106.019 64.4641C106.508 64.3805 107.244 64.6518 107.28 65.267C107.301 65.6221 106.324 65.6453 106.019 65.8151C105.282 66.2244 104.555 66.5912 103.839 67.1023C103.643 67.2428 103.183 67.6241 102.979 67.6694C102.535 67.768 102.133 68.1685 101.724 68.2429C100.991 68.3762 100.342 69.0144 99.7354 69.3963C99.3056 69.667 98.8615 69.8486 98.4227 70.1355C98.065 70.3694 97.6712 70.6564 97.3012 70.8619C96.8628 71.1055 96.6637 71.5934 96.1797 71.7796C95.7016 71.9634 95.3956 72.4716 94.9562 72.7227C94.6357 72.9058 94.1716 73.3962 93.9302 73.6913C93.6589 74.0229 93.451 74.5182 93.1146 74.7873C92.4454 75.3226 91.9529 76.3407 91.1073 76.6225" stroke="#90FF69" stroke-width="7" stroke-linecap="round"/>
<path d="M97.4159 69.2816C97.5605 69.9404 98.0425 70.3054 98.3335 70.8874" stroke="#90FF69" stroke-width="7" stroke-linecap="round"/>
<circle cx="-61.5" cy="417.5" r="94.5" fill="#90FF69"/>
<circle cx="82" cy="517" r="152" fill="#90FF69"/>
<circle cx="245" cy="517" r="137" fill="#90FF69"/>
<circle cx="463.5" cy="593.5" r="150.5" fill="#90FF69"/>
<path d="M-2.5 344.5C43.1597 379.115 55.0163 362.393 93.5 366.5" stroke="#90FF69"/>
<path d="M25.7112 375.189C24.6267 375.198 23.2245 375.064 22.2611 375.687C21.9363 375.897 21.9874 376.418 22.023 376.762C22.0746 377.261 26.1055 376.218 26.2096 374.934C26.2754 374.123 25.0949 373.956 25.2349 374.768C25.3607 375.497 27.915 375.168 28.3029 375.145C29.415 375.078 30.4967 374.898 31.5149 374.425C31.9369 374.229 32.9427 373.747 32.988 373.151C33.0136 372.814 32.7393 372.574 32.4674 372.442C31.2474 371.851 29.6713 371.655 28.3362 371.556C27.3786 371.485 24.9887 371.552 24.5372 372.741C24.1183 373.844 25.5823 374.694 26.4145 374.851C28.6148 375.266 31.9696 375.012 33.7411 373.439C34.7826 372.514 32.6624 371.665 32.0853 371.451C29.6593 370.549 26.8768 370.491 24.3156 370.626C24.0195 370.641 23.4795 370.62 23.3133 370.952C23.0986 371.382 23.2738 372.095 23.5293 372.464C24.1446 373.355 25.7272 373.292 26.6471 373.273C27.8568 373.247 29.393 373.125 30.3464 372.265C31.6618 371.079 28.1876 369.498 27.5498 369.23C25.1175 368.208 22.403 367.834 19.7746 367.918C19.221 367.935 19.131 368.479 19.2983 368.964C19.6256 369.913 21.393 369.867 22.1614 369.895C22.8609 369.919 24.335 370.075 24.1938 368.975C24.1307 368.484 23.9189 368.1 23.496 367.818C22.1615 366.928 20.2828 366.722 18.739 366.5C17.7003 366.35 16.6463 366.301 15.6101 366.14C15.0229 366.049 15.1481 365.909 14.8791 365.509C14.6548 365.175 14.2105 365.116 13.9487 364.816C13.4353 364.23 13.1202 363.548 12.8079 362.834C12.5945 362.346 12.3449 361.546 11.9551 361.184C11.645 360.896 11.1591 360.358 10.9582 359.982C10.8376 359.756 10.6835 359.501 10.4598 359.362C9.9966 359.072 11.5295 359.588 12.0547 359.738" stroke="#90FF69" stroke-width="7" stroke-linecap="round"/>
<path d="M13.4503 360.536C14.0311 360.978 14.6825 361.308 15.2446 361.776C16.0594 362.454 16.8478 363.029 17.7643 363.565C18.6732 364.096 19.5511 364.73 20.5056 365.176C21.5255 365.653 22.3839 366.411 23.3687 366.954C24.648 367.659 26.1208 368.139 27.5055 368.588C29.1712 369.127 30.558 370.233 32.0909 371.052C33.6595 371.891 35.4406 372.702 37.1414 373.228C38.4994 373.648 39.8893 373.995 41.2561 374.386C41.806 374.543 42.3864 374.591 42.9562 374.591" stroke="#90FF69" stroke-width="7" stroke-linecap="round"/>
<path d="M44.8502 372.797C43.5874 372.384 42.3411 372.126 41.0512 371.844C40.216 371.661 39.3924 371.391 38.5813 371.124C38.0114 370.936 37.4374 371 36.8756 370.842C35.8049 370.541 34.7051 370.312 33.6359 369.956C32.676 369.636 31.7627 369.264 30.8116 368.959C29.9804 368.692 29.1338 368.438 28.3362 368.089C27.8293 367.868 27.3314 367.682 26.8077 367.508C26.2764 367.331 25.8568 366.921 25.3457 366.694C24.1606 366.167 23.0369 365.545 21.879 364.966C21.2161 364.635 20.5043 364.418 19.8299 364.119C19.329 363.896 18.8467 363.597 18.3347 363.426" stroke="#90FF69" stroke-width="7" stroke-linecap="round"/>
<path d="M18.3347 363.426C19.3265 363.629 20.1797 364.121 21.076 364.578C22.2814 365.193 23.6793 365.561 24.9968 365.863C25.5709 365.995 26.37 366.157 26.8908 366.417C27.2521 366.598 27.748 366.57 28.0925 366.771C28.8144 367.192 29.8569 367.44 30.6565 367.713C31.5324 368.012 32.4512 368.192 33.3369 368.455C34.161 368.7 34.9647 369.026 35.7902 369.258C38.7034 370.077 41.5673 371.036 44.4957 371.8C45.6758 372.108 46.8572 372.29 48.0621 372.475C49.1678 372.645 50.2699 372.532 51.3295 372.797" stroke="#90FF69" stroke-width="7" stroke-linecap="round"/>
<path d="M52.8247 370.703C51.2114 370.703 49.598 370.703 47.9846 370.703C47.6062 370.703 47.2278 370.703 46.8493 370.703C46.4073 370.703 46.0819 370.555 45.6476 370.482C44.7954 370.337 44.0168 370.022 43.1556 370.005C42.8229 369.999 42.4208 369.862 42.1034 369.756C41.821 369.662 41.5172 369.77 41.2395 369.684C40.4268 369.432 39.4216 369.508 38.6699 369.153C38.0547 368.862 37.3652 368.831 36.7205 368.687C36.3359 368.602 36.0292 368.421 35.6296 368.361C35.1963 368.295 34.7469 368.384 34.3835 368.111" stroke="#90FF69" stroke-width="7" stroke-linecap="round"/>
<path d="M26.2096 365.221C25.6537 365.146 25.0689 365.089 24.6369 364.7C24.4203 364.505 24.0285 364.214 23.7397 364.146C23.3128 364.047 22.8454 363.738 22.4217 363.725C22.0063 363.714 21.6206 363.526 21.2255 363.526" stroke="#90FF69" stroke-width="7" stroke-linecap="round"/>
<path d="M21.2255 363.526C20.2348 363.25 19.3846 362.937 18.4455 362.535C18.0161 362.351 17.5976 361.982 17.1828 361.832C16.196 361.473 15.2653 361.026 14.2478 360.735C13.4925 360.519 12.5207 360.156 11.8332 359.738C11.4558 359.509 11.1878 359.351 10.8586 359.04C10.6795 358.871 10.4774 358.628 10.2605 358.52C9.64033 358.21 9.06699 357.757 8.4662 357.39C8.39918 357.349 7.57851 357.005 7.5746 356.991C7.51346 356.777 7.23943 356.529 7.06511 356.355C6.56747 355.857 5.78181 355.73 5.27637 355.252C4.89979 354.897 4.26741 354.278 3.78114 354.156" stroke="#90FF69" stroke-width="7" stroke-linecap="round"/>
<path d="M4.08018 354.156C5.00271 354.696 5.91915 355.173 6.81037 355.79C7.35154 356.164 7.98093 356.365 8.5105 356.77C8.92104 357.084 9.43896 357.335 9.91159 357.545C10.2248 357.684 10.4639 357.911 10.7478 358.093C10.8971 358.189 11.1493 358.266 11.2628 358.398C11.6177 358.812 12.2312 359.049 12.675 359.339C13.4778 359.864 14.3613 360.213 15.1449 360.735" stroke="#90FF69" stroke-width="7" stroke-linecap="round"/>
<path d="M98 366.5C98 366.5 191.5 383 243 380.5" stroke="#90FF69"/>
<path d="M195.377 399.647C190.576 397.315 185.285 396.055 180.183 394.541C177.6 393.776 175.093 392.786 172.49 392.145C171.529 391.909 165.304 391.132 166.377 394.021C166.701 394.891 168.184 395.11 168.913 395.271C171.965 395.943 175.122 396.119 178.238 396.191C179.203 396.214 180.787 396.271 178.793 396.035C176.756 395.793 174.651 395.508 172.594 395.583C171.818 395.612 171.583 396.076 172.142 396.695C173.576 398.281 176.668 398.628 178.602 398.779C182.484 399.081 186.608 398.931 190.446 398.223C191.874 397.959 190.528 397.182 189.855 396.764C186.752 394.838 182.977 393.838 179.471 392.996C176.093 392.185 173.88 391.807 170.475 391.364C168.815 391.147 163.8 390.895 165.474 390.895C166.931 390.895 168.399 391.276 169.85 391.381C174.63 391.725 179.531 391.6 184.194 390.426C185.468 390.105 189.183 389.144 187.875 389.019C186.355 388.874 184.869 388.288 183.413 387.873C179.472 386.752 175.475 385.776 171.483 384.852C168.362 384.129 165.222 384.331 162.036 384.331C159.917 384.331 157.799 384.331 155.68 384.331C155.203 384.331 154.49 384.464 154.048 384.192C152.368 383.158 155.097 383.764 155.836 383.879C158.748 384.332 161.55 385.463 164.45 386.032C166.718 386.478 169.066 386.284 171.239 387.074C173.492 387.894 176.41 388.389 178.793 388.707C179.083 388.745 180.278 388.943 179.071 389.002C176.115 389.146 173.121 389.019 170.163 389.019C166.878 389.019 162.513 389.769 159.327 388.707C158.541 388.445 160.964 388.394 161.793 388.394C169.805 388.394 178.335 387.518 186.278 388.724C188.761 389.101 190.883 389.644 193.432 389.644C196.808 389.644 201.34 390.267 204.459 388.863C205.121 388.565 207.217 388.082 206.491 388.082C204.07 388.082 201.855 387.4 199.475 387.022C193.597 386.09 187.584 385.855 181.832 384.261C178.692 383.391 175.818 383.08 172.577 383.08C170.652 383.08 168.598 383.288 166.69 383.011C163.509 382.549 160.514 381.83 157.26 381.83C154.4 381.83 151.672 380.892 148.786 380.892C147.93 380.892 146.66 381.123 145.851 380.753C144.87 380.305 143.954 379.856 142.882 379.642C141.855 379.437 141.128 378.758 140.051 378.704C139.262 378.665 138.892 377.876 138.159 377.784C136.535 377.581 134.976 377.378 133.418 376.898C131.914 376.436 129.033 376.204 132.48 376.204C135.034 376.204 137.248 376.338 139.704 377.124C141.998 377.858 144.198 377.767 146.581 377.767C150.346 377.767 154.052 378.392 157.833 378.392C159.056 378.392 161.153 378.743 162.244 379.26C163.156 379.692 164.026 379.955 165.04 379.955C166.289 379.955 167.31 380.516 168.496 380.58C170.501 380.688 172.685 380.72 174.608 381.361C178.205 382.56 182.697 380.808 186.382 381.9C195.557 384.618 205.575 385.162 215.07 386.519" stroke="#90FF69" stroke-width="7" stroke-linecap="round"/>
<path d="M177.792 380.608C177.222 380.497 176.62 380.392 176.063 380.392C174.99 380.392 173.999 379.96 172.931 379.96C171.875 379.96 170.909 379.954 169.883 379.768C169.213 379.646 168.539 379.636 167.855 379.636" stroke="#90FF69" stroke-width="7" stroke-linecap="round"/>
<path d="M218.834 384.928C217.576 384.928 216.458 384.895 215.246 384.652C214.517 384.506 213.763 384.541 213.025 384.388C212.415 384.262 211.777 384.068 211.165 383.98C210.39 383.869 209.547 383.956 208.765 383.956C207.485 383.956 206.215 383.74 204.925 383.74C203.607 383.74 202.348 383.524 201.037 383.524C199.411 383.524 197.788 383.476 196.177 383.416C195.128 383.377 194.102 382.98 193.104 382.684C192.764 382.583 192.295 382.66 191.94 382.66C191.571 382.66 191.329 382.444 190.944 382.444C190.556 382.444 189.392 382.444 189.78 382.444C190.771 382.444 191.681 382.824 192.648 382.876C195.238 383.015 197.883 382.918 200.473 382.984C200.876 382.994 201.235 383.191 201.637 383.2C202.105 383.211 202.551 383.216 203.017 383.284C203.729 383.388 204.528 383.416 205.249 383.416C207.614 383.416 209.889 383.848 212.245 383.848C214.723 383.848 217.231 383.956 219.722 383.956C220.772 383.956 221.815 384.064 222.878 384.064C223.984 384.064 225.588 383.763 226.61 384.172" stroke="#90FF69" stroke-width="7" stroke-linecap="round"/>
<path d="M143.194 377.375C143.45 377.175 143.631 377.005 143.912 376.854C143.955 376.831 144.434 376.685 144.423 376.657C144.408 376.621 143.022 376.443 142.928 376.418C141.737 376.106 140.499 376.13 139.267 376.13" stroke="#90FF69" stroke-width="7" stroke-linecap="round"/>
<path d="M139.65 376.705C138.654 376.679 137.607 376.495 136.618 376.343C135.762 376.212 134.861 376.186 134.043 375.891C133.694 375.766 133.293 375.323 132.947 375.274C132.289 375.18 131.601 375.185 130.936 375.173C130.021 375.156 129.135 374.79 128.212 374.79C127.452 374.79 126.706 374.598 125.956 374.598" stroke="#90FF69" stroke-width="7" stroke-linecap="round"/>
<circle cx="218" cy="448" r="139" fill="#90FF69"/>
<path d="M57.5 367C97.4543 363.143 159.5 317.5 177 316" stroke="#90FF69"/>
<path d="M105.948 364.318C105.122 364.51 100.905 365.39 101.501 366.879C101.735 367.465 103.262 366.993 103.574 366.904C105.557 366.34 107.708 365.386 109.358 364.131C110.227 363.47 109.398 362.936 108.634 362.795C106.34 362.37 103.592 362.591 101.451 363.507C100.786 363.791 98.3989 364.753 98.5528 365.83C98.7156 366.97 101.33 366.311 101.838 366.23C106.43 365.492 111.51 363.912 115.279 361.083C115.923 360.6 117.77 358.862 117.04 357.798C116.705 357.308 115.943 357.299 115.442 357.304C113.725 357.324 111.937 357.655 110.295 358.135C108.322 358.712 105.312 359.854 104.474 361.995C104.249 362.569 104.381 362.974 105.023 363.057C106.155 363.203 107.373 362.995 108.465 362.745C111.28 362.099 114.046 361.05 116.603 359.709C118.767 358.574 120.728 357.175 122.318 355.312C122.966 354.554 123.652 353.64 123.886 352.639C124.177 351.391 122.426 351.671 121.687 351.764C118.439 352.174 115.126 353.823 112.481 355.699C112.031 356.019 110.165 357.271 110.332 358.11C110.467 358.782 115.166 356.983 115.192 356.973C117.845 355.989 120.467 354.882 123.011 353.644C124.432 352.954 126.028 352.214 127.184 351.09C127.303 350.974 128.055 350.037 127.708 349.753C127.578 349.646 127.161 349.715 127.059 349.722C126.167 349.787 125.264 349.911 124.411 350.19C123.293 350.556 121.639 351.414 121.088 352.551C120.715 353.32 123.987 351.561 124.023 351.54C125.477 350.699 127.663 349.574 128.333 347.892C128.476 347.532 128.291 347.206 128.483 346.868C128.81 346.29 129.364 345.846 129.732 345.294C130.14 344.682 130.532 344.063 131.019 343.52C131.549 342.927 131.99 342.347 132.705 341.971C133.243 341.688 133.447 341.043 133.942 340.734C134.134 340.614 134.502 340.262 134.591 340.06C134.697 339.819 134.995 339.758 135.178 339.585C135.643 339.146 136.385 339.011 136.89 338.598C136.948 338.55 137.278 338.527 136.927 338.598C136.533 338.679 136.249 338.903 135.903 339.085C135.597 339.247 135.256 339.331 134.954 339.498C134.38 339.813 133.913 340.296 133.33 340.597C133.008 340.762 132.62 340.794 132.368 341.046C132.114 341.3 131.792 341.522 131.493 341.721C130.988 342.058 130.701 342.566 130.207 342.908C128.969 343.765 127.714 344.702 126.609 345.731C125.569 346.699 124.534 347.653 123.424 348.554C122.071 349.652 120.417 350.146 118.964 351.102C114.874 353.796 111.015 356.854 106.71 359.234C104.776 360.304 102.809 361.326 100.939 362.495C99.3178 363.508 97.5875 364.682 95.7421 365.218C95.0878 365.408 94.3011 365.742 93.631 365.78C92.6763 365.834 91.6987 365.918 90.7455 366.03C90.1221 366.103 89.5078 366.241 88.8842 366.317C88.3506 366.382 87.8834 366.661 87.3477 366.679C86.2919 366.716 85.292 367.017 84.2498 367.017C82.6194 367.017 81.03 367.437 79.4155 367.466C78.4092 367.485 77.299 367.323 76.3176 367.554C75.9612 367.638 75.5687 367.559 75.2058 367.579C74.7586 367.604 74.3844 367.804 73.9067 367.804C73.6045 367.804 73.3249 367.916 73.0073 367.916C72.625 367.916 72.4129 368.239 72.0204 368.253C71.4458 368.275 70.9686 368.478 70.4215 368.478C69.9705 368.478 70.0073 368.591 70.484 368.591C71.4154 368.591 72.2462 368.235 73.1447 368.041C73.9578 367.865 74.6425 367.486 75.4244 367.185C75.8632 367.017 76.3672 366.679 76.886 366.679C77.4758 366.679 78.1155 366.341 78.691 366.236C79.3379 366.118 79.9454 365.651 80.6085 365.549C81.967 365.34 83.2386 364.505 84.5871 364.312C84.9205 364.265 85.2303 363.985 85.5489 363.869C85.767 363.789 86.2072 363.731 86.3796 363.588C86.6304 363.379 87.4894 363.019 87.7974 362.963C88.4253 362.849 89.2358 362.443 89.8148 362.176C90.1901 362.003 90.5696 361.825 90.9328 361.627C91.2231 361.468 91.5691 361.489 91.7885 361.233C91.9766 361.014 92.5807 361.105 92.8503 360.896C93.0528 360.738 93.4081 360.708 93.6435 360.558C93.8426 360.432 94.4063 360.208 94.6429 360.165C94.8768 360.122 95.0149 359.914 95.2237 359.821C96.381 359.307 97.3364 358.419 98.584 358.141C99.0748 358.032 99.5482 357.59 100.002 357.461C100.751 357.247 101.448 356.787 102.182 356.505C102.907 356.226 103.786 356.128 104.424 355.606C104.936 355.187 105.838 355.001 106.279 354.488C106.62 354.089 107.612 353.871 108.09 353.632C108.618 353.368 109.19 353.199 109.714 352.907C110.188 352.644 110.714 352.489 111.176 352.233C111.647 351.971 112.115 351.612 112.637 351.496C113.16 351.38 113.629 351.049 114.099 350.84C114.576 350.628 115.261 350.384 115.616 349.984C115.832 349.742 116.197 349.789 116.41 349.541C116.528 349.403 116.969 349.211 117.128 349.154C117.594 348.984 118.136 348.652 118.596 348.404C119.751 347.782 120.87 347.206 122.081 346.668C122.386 346.532 122.675 346.354 122.98 346.218C123.251 346.098 123.739 345.941 123.93 345.718C124.248 345.347 125.182 345.406 125.51 345.038C125.856 344.648 126.624 344.415 127.084 344.251C127.693 344.033 128.238 343.681 128.883 343.52" stroke="#90FF69" stroke-width="7" stroke-linecap="round"/>
<path d="M128.883 343.52C129.142 342.895 129.384 342.849 129.894 342.508" stroke="#90FF69" stroke-width="7" stroke-linecap="round"/>
<path d="M316 350C366 406.5 403.5 437.5 484.5 445" stroke="#90FF69"/>
<path d="M383.911 461.99C381.722 462.265 378.287 462.659 376.024 463.074C375.384 463.191 373.769 463.495 373.05 463.981C372.437 464.396 372.567 465.628 372.571 466.224C372.587 468.187 373.195 470.504 375.646 470.382C379.469 470.191 383.18 465.879 383.76 462.268C384.116 460.049 382.972 457.5 380.433 457.555C376.875 457.632 374.613 462.46 374.99 465.619C375.497 469.853 380.311 470.632 383.735 469.928C386.492 469.361 393.679 467.191 391.395 462.797C389.852 459.827 385.531 459.274 382.651 458.992C379.971 458.729 375.868 458.717 373.176 458.992C370.87 459.227 368.067 459.634 366.46 461.524C364.238 464.138 366.838 467.34 369.56 467.937C374.351 468.988 381.558 467.973 385.347 464.636C386.412 463.699 386.052 462.47 385.284 461.461C383.959 459.72 381.751 459.54 379.715 459.483C376.855 459.404 374.011 459.761 371.626 461.461C370.718 462.109 369.386 463.271 369.459 464.548C369.529 465.771 372.181 465.85 372.823 465.921C378.864 466.596 384.992 465.736 390.853 464.258C394.523 463.333 397.593 462.339 400.996 460.768C402.318 460.158 404.407 459.661 404.537 458.21C404.69 456.494 396.965 456.968 396.41 457.026C391.946 457.496 387.667 459.144 383.911 461.575C383.774 461.663 381.645 462.901 381.945 463.578C382.519 464.868 388.699 463.89 388.774 463.88C400.131 462.366 410.983 458.128 421.786 454.506" stroke="#90FF69" stroke-width="7" stroke-linecap="round"/>
<path d="M370.53 454.506C369.951 454.097 368.182 453.656 367.809 453.095C367.495 452.625 367.429 451.203 367.531 451.255C368.984 451.996 370.149 452.868 371.714 453.196C373.544 453.579 375.01 454.646 376.628 455.539C379.8 457.29 383.135 458.813 386.456 460C387.674 460.434 388.87 461.052 389.959 461.764C390.703 462.25 391.515 462.365 392.252 462.797C392.851 463.148 393.826 463.755 394.52 463.805C395.16 463.85 395.597 464.396 396.158 464.661C396.881 465.004 397.982 465.204 398.602 465.669C399.011 465.976 399.476 465.734 399.963 465.896C400.531 466.086 401.073 466.489 401.601 466.753" stroke="#90FF69" stroke-width="69" stroke-linecap="round"/>
<path d="M388.22 463.578C386.852 462.644 385.344 462.141 383.861 461.436C382.009 460.557 380.366 459.28 378.543 458.336C376.213 457.13 373.908 456.118 371.525 455.035C369.196 453.976 367.217 452.145 364.734 451.381C363.293 450.938 361.834 449.982 360.425 449.378C358.264 448.452 356.538 446.145 354.667 444.741C353.33 443.739 351.925 442.052 350.308 441.566C348.034 440.884 347.456 439.597 345.923 438.064C345.38 437.521 344.877 436.917 344.323 436.363C343.964 436.004 343.787 435.289 343.428 435.002C342.931 434.604 342.786 433.697 342.584 433.137C342.345 432.473 341.663 432.077 341.286 431.512C341.011 431.099 340.476 430.842 340.14 430.466C339.663 429.934 339.252 429.038 338.691 428.664C338.106 428.275 337.624 427.426 337.078 426.938C336.439 426.366 336.077 425.259 335.377 424.847C334.605 424.392 334.019 422.985 333.336 422.301C332.898 421.863 332.541 421.02 332.063 420.701C331.589 420.385 330.767 419.83 330.564 419.303C330.149 418.223 329.578 416.795 328.75 415.901C328.013 415.105 325.937 412.988 325.852 411.919C325.786 411.1 324.099 409.164 323.407 408.694C322.5 408.077 321.805 407.469 321.039 406.703C320.096 405.761 318.265 405.314 317.687 404.158" stroke="#90FF69" stroke-width="69" stroke-linecap="round"/>
<path d="M433.811 443.971C433.694 443.971 432.383 443.849 432.323 444.019C432.208 444.345 433.453 444.289 433.457 444.289C435.127 444.318 436.98 444.405 438.575 443.827C439.188 443.606 438.588 443.502 438.263 443.431C436.851 443.125 435.344 443.108 433.907 443.191C433.784 443.198 433.007 443.16 433.493 443.383C434.231 443.722 435.176 443.782 435.965 443.923C437.019 444.112 438.103 444.214 439.103 444.595C439.318 444.677 439.581 444.594 439.805 444.637C440.072 444.689 440.293 444.943 440.561 444.943C441.207 444.943 441.854 444.943 442.5 444.943C444.772 444.943 447.421 444.38 449.58 445.243C449.873 445.361 450.259 445.402 450.576 445.507C450.893 445.613 451.3 445.754 451.632 445.801C452.31 445.898 452.888 446.243 453.576 446.341C455.027 446.549 456.429 447.055 457.788 447.583C458.98 448.047 460.319 448.425 461.521 448.699C461.662 448.732 462.852 448.688 462.625 448.915C462.283 449.257 461.824 448.689 461.677 448.615" stroke="#90FF69" stroke-width="11" stroke-linecap="round"/>
<path d="M462.325 447.535C461.861 447.524 461.054 447.515 460.597 447.379C459.826 447.151 459.129 446.887 458.328 446.887" stroke="#90FF69" stroke-width="11" stroke-linecap="round"/>
<path d="M441.804 443.431C441.263 443.431 440.846 443.448 440.345 443.263C439.926 443.108 439.308 443.149 438.941 442.945C438.515 442.708 438.099 442.888 437.663 442.759C437.268 442.642 436.825 442.373 436.403 442.351C435.412 442.299 434.48 442.027 433.445 442.027C432.956 442.027 432.484 441.835 431.975 441.811C431.26 441.777 430.587 441.595 429.851 441.595C428.975 441.595 428.099 441.595 427.223 441.595C426.675 441.595 426.19 441.811 425.645 441.811C424.947 441.811 424.287 441.809 423.605 441.655C422.43 441.39 421.328 441.166 420.226 440.671C419.279 440.246 418.533 439.688 417.694 439.087C415.45 437.478 412.876 436.571 410.398 435.445C409.249 434.923 407.988 434.701 406.81 434.251C406.149 433.998 405.504 433.963 404.817 433.843C404.467 433.781 404.141 433.603 403.785 433.603" stroke="#90FF69" stroke-width="11" stroke-linecap="round"/>
<path d="M423.659 440.947C423.989 440.947 427.341 440.695 425.903 440.215C425.599 440.114 425.388 440.246 425.117 440.035C424.961 439.914 424.557 439.928 424.361 439.867C424.163 439.806 423.448 438.919 423.875 438.895C424.417 438.865 424.928 438.903 425.447 438.997C426.001 439.098 426.453 439.312 427.007 439.435C427.715 439.592 428.301 440.159 428.975 440.383C429.41 440.528 429.893 440.666 430.301 440.893C430.573 441.044 431.705 441.271 430.787 441.271" stroke="#90FF69" stroke-width="11" stroke-linecap="round"/>
<path d="M430.679 440.623C430.888 440.786 431.123 440.944 431.321 441.109C431.472 441.235 431.731 441.133 431.915 441.217C432.115 441.308 432.537 441.315 432.623 441.487" stroke="#90FF69" stroke-width="11" stroke-linecap="round"/>
<path d="M424.091 439.219C423.413 438.726 422.54 438.606 421.93 438.031C421.749 437.859 421.417 437.74 421.174 437.713C420.746 437.665 420.443 437.343 420.04 437.281C418.664 437.069 417.375 436.322 416.104 435.925C415.453 435.721 414.78 435.402 414.154 435.139C413.586 434.9 412.897 434.745 412.366 434.407C411.247 433.695 409.854 433.415 408.688 432.787C407.422 432.105 406.012 431.75 404.781 431.034C404.258 430.73 403.431 430.752 402.981 430.302C402.544 429.865 401.455 429.692 400.869 429.39C399.661 428.769 398.423 428.251 397.197 427.638C396.585 427.332 396.036 426.905 395.409 426.636C394.986 426.455 394.586 426.237 394.173 426.042C393.833 425.882 393.386 425.806 393.093 425.61" stroke="#90FF69" stroke-width="11" stroke-linecap="round"/>
<path d="M397.413 427.554C397.066 427.554 396.765 427.446 396.441 427.446C396.081 427.446 396.047 427.296 395.739 427.182C395.426 427.067 395.023 426.917 394.773 426.69C394.604 426.537 394.425 426.548 394.281 426.426C393.933 426.133 393.473 425.9 393.033 425.82C392.493 425.722 392.025 425.298 391.515 425.184C390.343 424.924 389.27 424.013 388.149 423.582C387.919 423.494 387.788 423.301 387.561 423.21C387.055 423.008 387.897 423.016 388.065 423.072C388.556 423.236 388.981 423.668 389.463 423.882C390.062 424.149 389.373 424.28 389.025 424.074C388.371 423.688 387.745 423.245 387.146 422.796C386.416 422.248 385.48 421.922 384.668 421.506C383.987 421.156 383.483 420.721 382.856 420.318C382.639 420.178 382.415 420.025 382.184 419.91C382.089 419.862 382.652 419.87 382.772 419.892C383.284 419.985 383.565 420.847 384.074 420.96C384.548 421.065 384.935 421.574 385.316 421.854C385.775 422.191 386.391 422.666 386.936 422.802" stroke="#90FF69" stroke-width="11" stroke-linecap="round"/>
<path d="M393.525 425.286C394.424 425.286 393.844 425.286 393.417 425.286C393.04 425.286 392.803 425.307 392.769 424.878C392.758 424.737 392.084 424.579 392.343 424.536C392.65 424.485 392.996 424.53 393.309 424.53" stroke="#90FF69" stroke-width="11" stroke-linecap="round"/>
<path d="M394.821 425.286C394.715 425.307 394.253 425.474 394.173 425.334C394.134 425.265 394.089 425.1 394.005 425.076C393.707 424.991 393.495 425.031 393.201 424.854" stroke="#90FF69" stroke-width="11" stroke-linecap="round"/>
<path d="M392.661 424.314C391.899 424.05 391.802 423.727 391.365 423.18C391.185 422.955 390.74 423.162 390.501 422.802" stroke="#90FF69" stroke-width="11" stroke-linecap="round"/>
<path d="M390.177 422.802C389.815 422.547 389.458 422.407 389.151 422.1C388.929 421.878 388.832 421.607 388.503 421.506C388.177 421.406 387.647 421.208 387.393 420.99C387.066 420.71 386.597 420.593 386.288 420.318C385.895 419.968 385.312 419.56 384.83 419.346C384.288 419.105 383.462 418.679 383.048 418.266" stroke="#90FF69" stroke-width="11" stroke-linecap="round"/>
<path d="M325.265 373.875C325.91 373.023 326.748 372.268 327.701 371.763C327.991 371.61 328.544 371.39 328.877 371.511C329.212 371.633 329.395 372.497 329.669 372.771C329.833 372.935 330.073 373.007 330.233 373.167C330.429 373.363 330.557 373.654 330.779 373.821C331.456 374.329 331.637 375.453 332.339 375.921C332.589 376.088 333.077 376.427 333.234 376.683C333.535 377.176 334.007 377.535 334.284 378.034C335.077 379.461 336.498 380.404 337.638 381.544C338.289 382.195 339.071 382.642 339.738 383.272C340.186 383.696 341.176 384.095 341.466 384.676" stroke="#90FF69" stroke-width="11" stroke-linecap="round"/>
<path d="M345.462 391.696C345.908 391.09 346.078 390.511 346.758 390.208C347.374 389.935 348.017 390.991 348.378 391.372C348.815 391.833 349.136 392.499 349.65 392.884C349.869 393.048 350.045 393.423 350.274 393.64C350.516 393.869 350.805 394.155 350.97 394.444C351.269 394.967 351.947 395.149 352.219 395.693C352.464 396.184 352.859 396.697 353.239 397.097C353.644 397.523 354.208 397.986 354.511 398.501C354.837 399.056 355.474 399.748 356.041 400.067C356.335 400.232 356.596 400.508 356.863 400.661C357.16 400.831 356.486 400.769 356.371 400.769C356.06 400.769 355.417 399.822 355.465 399.803C356.236 399.494 356.747 400.618 357.397 400.763C357.645 400.818 357.819 401.049 357.991 401.243C358.252 401.537 358.82 401.82 359.155 402.065C359.63 402.412 360.112 402.746 360.535 403.145C361.232 403.803 359.771 403.675 359.503 403.205C359.448 403.109 359.317 403.163 359.239 403.085C359.152 402.998 359.195 402.864 359.119 402.767C358.9 402.485 358.77 402.573 358.483 402.491C358.333 402.448 358.03 402.162 357.997 402.011C357.951 401.806 357.531 401.65 357.343 401.525" stroke="#90FF69" stroke-width="11" stroke-linecap="round"/>
<path d="M351.619 394.288C352.209 394.718 352.767 395.152 353.347 395.561C353.532 395.691 353.665 396.049 353.839 396.233C354.099 396.508 354.353 396.776 354.637 397.037C355.099 397.461 355.554 397.927 355.963 398.369C356.541 398.993 357.295 399.489 357.985 400.007C358.45 400.356 358.901 400.805 359.395 401.117C360.012 401.507 360.241 402.501 360.961 402.821C361.613 403.111 362.079 403.73 362.659 404.117C363.385 404.601 363.894 405.275 364.627 405.791C365.068 406.101 365.491 406.452 365.923 406.769C366.256 407.013 366.462 407.414 366.847 407.579C367.571 407.889 368.157 408.64 368.707 409.169C369.215 409.657 369.885 410.214 370.52 410.531C370.907 410.725 371.24 410.97 371.612 411.197C372.062 411.473 372.579 411.618 372.98 411.977C373.603 412.537 374.454 412.803 375.056 413.406C375.586 413.935 376.336 414.346 377 414.678C378.23 415.292 379.218 416.351 380.456 416.97" stroke="#90FF69" stroke-width="11" stroke-linecap="round"/>
</svg>
