<svg id="Capa_1" enable-background="new 0 0 512 512" fill='#B3B3B3' height="512" viewBox="0 0 512 512" width="512" xmlns="http://www.w3.org/2000/svg"><g><path d="m437.02 74.98c-48.353-48.351-112.64-74.98-181.02-74.98s-132.667 26.629-181.02 74.98c-48.351 48.353-74.98 112.64-74.98 181.02s26.629 132.667 74.98 181.02c48.353 48.351 112.64 74.98 181.02 74.98s132.667-26.629 181.02-74.98c48.351-48.353 74.98-112.64 74.98-181.02s-26.629-132.667-74.98-181.02zm-181.02 407.02c-124.617 0-226-101.383-226-226s101.383-226 226-226 226 101.383 226 226-101.383 226-226 226z"/><path d="m405.603 244.477-120-100c-4.471-3.727-10.695-4.527-15.965-2.061-5.271 2.469-8.638 7.764-8.638 13.584v200c0 5.82 3.367 11.115 8.638 13.584 2.03.951 4.202 1.416 6.36 1.416 3.445 0 6.856-1.186 9.605-3.477l120-100c3.42-2.85 5.397-7.071 5.397-11.523s-1.978-8.674-5.397-11.523zm-114.603 79.498v-135.95l81.569 67.975z"/><path d="m216 141h-60c-8.284 0-15 6.716-15 15v200c0 8.284 6.716 15 15 15h60c8.284 0 15-6.716 15-15v-200c0-8.284-6.716-15-15-15zm-15 200h-30v-170h30z"/></g></svg>