<svg width="478" height="478" viewBox="0 0 478 478" fill="none" xmlns="http://www.w3.org/2000/svg">
<g clip-path="url(#clip0)">
<path d="M238.933 0C106.974 0 0 106.974 0 238.933C0 370.892 106.974 477.866 238.933 477.866C370.892 477.866 477.866 370.892 477.866 238.933C477.726 107.033 370.834 0.141 238.933 0ZM339.557 246.546C337.903 249.864 335.214 252.554 331.895 254.208V254.293L195.362 322.56C186.93 326.773 176.68 323.354 172.466 314.922C171.268 312.525 170.651 309.879 170.666 307.2V170.667C170.662 161.241 178.299 153.597 187.725 153.592C190.376 153.591 192.991 154.207 195.362 155.392L331.895 223.659C340.331 227.863 343.762 238.11 339.557 246.546Z" fill="#1ED760"/>
<path d="M334.424 224.693C346.207 230.592 346.207 247.408 334.424 253.307L194.163 323.532C183.524 328.858 171 321.123 171 309.225V168.775C171 156.877 183.524 149.142 194.163 154.468L334.424 224.693Z" fill="white"/>
</g>
<defs>
<clipPath id="clip0">
<rect width="477.867" height="477.867" fill="white"/>
</clipPath>
</defs>
</svg>
