<svg id="Capa_1" enable-background="new 0 0 512 512" height="512" fill='white' viewBox="0 0 512 512" width="512" xmlns="http://www.w3.org/2000/svg"><g><path d="m334.227 220.681c5.335 0 9.675-4.34 9.675-9.674v-29.229c0-5.334-4.34-9.674-9.675-9.674h-154.962c-5.335 0-9.675 4.34-9.675 9.674v29.229c0 5.334 4.34 9.674 9.675 9.674zm-149.637-33.577h144.312v18.578h-144.312z"/><path d="m482.541 330.944v-29.229c0-5.334-4.34-9.674-9.674-9.674h-154.963c-5.334 0-9.674 4.34-9.674 9.674v29.229c0 5.334 4.34 9.674 9.674 9.674h154.963c5.334 0 9.674-4.34 9.674-9.674zm-15-5.326h-144.311v-18.577h144.311z"/><path d="m194.096 52.11h-98.904c-4.143 0-7.5 3.358-7.5 7.5s3.357 7.5 7.5 7.5h93.578v18.578h-144.311v-18.578h20.746c4.143 0 7.5-3.358 7.5-7.5s-3.357-7.5-7.5-7.5h-26.071c-5.335 0-9.675 4.34-9.675 9.674v29.229c0 5.334 4.34 9.675 9.675 9.675h154.962c5.335 0 9.675-4.34 9.675-9.675v-29.228c0-5.335-4.34-9.675-9.675-9.675z"/><path d="m494.092 263.955h-120.732v-102.028c0-9.875-8.034-17.909-17.909-17.909h-122.222v-102.084c0-9.875-8.034-17.909-17.909-17.909h-197.411c-9.875 0-17.909 8.034-17.909 17.909v188.203c0 9.875 8.034 17.909 17.909 17.909h122.222v36.501c0 4.143 3.357 7.5 7.5 7.5s7.5-3.357 7.5-7.5v-122.62c0-1.604 1.305-2.909 2.909-2.909h197.411c1.604 0 2.909 1.305 2.909 2.909v102.028h-61.68c-9.875 0-17.908 8.034-17.908 17.909v71.175h-120.732c-1.604 0-2.909-1.305-2.909-2.908v-35.597c0-4.143-3.357-7.5-7.5-7.5s-7.5 3.357-7.5 7.5v35.597c0 9.875 8.034 17.908 17.909 17.908h120.731v102.028c0 9.875 8.033 17.908 17.908 17.908h143.302c4.143 0 7.5-3.357 7.5-7.5s-3.357-7.5-7.5-7.5h-143.301c-1.604 0-2.908-1.305-2.908-2.908v-188.203c0-1.604 1.305-2.909 2.908-2.909h197.412c1.604 0 2.908 1.305 2.908 2.909v188.203c0 1.604-1.305 2.908-2.908 2.908h-24.124c-4.143 0-7.5 3.357-7.5 7.5s3.357 7.5 7.5 7.5h24.124c9.875 0 17.908-8.033 17.908-17.908v-188.203c0-9.875-8.033-17.909-17.908-17.909zm-353.961-102.028v71.119h-122.222c-1.604 0-2.909-1.305-2.909-2.909v-188.203c0-1.604 1.305-2.909 2.909-2.909h197.411c1.604 0 2.909 1.305 2.909 2.909v102.084h-60.189c-9.875 0-17.909 8.034-17.909 17.909z"/></g></svg>